<?xml version="1.0" encoding="UTF-8" standalone="no"?>
<!DOCTYPE svg PUBLIC "-//W3C//DTD SVG 1.1//EN"
 "http://www.w3.org/Graphics/SVG/1.1/DTD/svg11.dtd">
<!-- Generated by graphviz version 2.47.3 (20210619.1520)
 -->
<!-- Title: dependencies Pages: 1 -->
<svg width="988pt" height="247pt"
 viewBox="0.00 0.00 988.00 246.80" xmlns="http://www.w3.org/2000/svg" xmlns:xlink="http://www.w3.org/1999/xlink">
<g id="graph0" class="graph" transform="scale(1 1) rotate(0) translate(4 242.8)">
<title>dependencies</title>
<polygon fill="white" stroke="transparent" points="-4,4 -4,-242.8 984,-242.8 984,4 -4,4"/>
<text text-anchor="middle" x="490" y="-8.2" font-family="sans-serif" font-size="14.00">dependencies</text>
<g id="clust1" class="cluster">
<title>cluster_AppModule</title>
<polygon fill="none" stroke="black" stroke-dasharray="1,5" points="8,-32.8 8,-230.8 972,-230.8 972,-32.8 8,-32.8"/>
</g>
<g id="clust2" class="cluster">
<title>cluster_AppModule_declarations</title>
<polygon fill="none" stroke="black" points="16,-40.8 16,-92.8 964,-92.8 964,-40.8 16,-40.8"/>
</g>
<g id="clust11" class="cluster">
<title>cluster_AppModule_bootstrap</title>
<polygon fill="none" stroke="black" points="466,-170.8 466,-222.8 590,-222.8 590,-170.8 466,-170.8"/>
</g>
<!-- AppComponent -->
<g id="node1" class="node">
<title>AppComponent</title>
<polygon fill="#ffffb3" stroke="black" points="955.94,-84.8 850.06,-84.8 850.06,-48.8 955.94,-48.8 955.94,-84.8"/>
<text text-anchor="middle" x="903" y="-62.6" font-family="Times,serif" font-size="14.00">AppComponent</text>
</g>
<!-- AppModule -->
<g id="node7" class="node">
<title>AppModule</title>
<polygon fill="#8dd3c7" stroke="black" points="569.66,-149.8 566.66,-153.8 545.66,-153.8 542.66,-149.8 486.34,-149.8 486.34,-113.8 569.66,-113.8 569.66,-149.8"/>
<text text-anchor="middle" x="528" y="-127.6" font-family="Times,serif" font-size="14.00">AppModule</text>
</g>
<!-- AppComponent&#45;&gt;AppModule -->
<g id="edge1" class="edge">
<title>AppComponent&#45;&gt;AppModule</title>
<path fill="none" stroke="black" d="M903,-85.08C903,-106.12 903,-137.8 903,-137.8 903,-137.8 579.93,-137.8 579.93,-137.8"/>
<polygon fill="black" stroke="black" points="579.93,-134.3 569.93,-137.8 579.93,-141.3 579.93,-134.3"/>
</g>
<!-- MessageComponent -->
<g id="node2" class="node">
<title>MessageComponent</title>
<polygon fill="#ffffb3" stroke="black" points="832.31,-84.8 701.69,-84.8 701.69,-48.8 832.31,-48.8 832.31,-84.8"/>
<text text-anchor="middle" x="767" y="-62.6" font-family="Times,serif" font-size="14.00">MessageComponent</text>
</g>
<!-- MessageComponent&#45;&gt;AppModule -->
<g id="edge2" class="edge">
<title>MessageComponent&#45;&gt;AppModule</title>
<path fill="none" stroke="black" d="M767,-84.82C767,-102.17 767,-125.8 767,-125.8 767,-125.8 579.9,-125.8 579.9,-125.8"/>
<polygon fill="black" stroke="black" points="579.9,-122.3 569.9,-125.8 579.9,-129.3 579.9,-122.3"/>
</g>
<!-- MessagesComponent -->
<g id="node3" class="node">
<title>MessagesComponent</title>
<polygon fill="#ffffb3" stroke="black" points="683.75,-84.8 548.25,-84.8 548.25,-48.8 683.75,-48.8 683.75,-84.8"/>
<text text-anchor="middle" x="616" y="-62.6" font-family="Times,serif" font-size="14.00">MessagesComponent</text>
</g>
<!-- MessagesComponent&#45;&gt;AppModule -->
<g id="edge3" class="edge">
<title>MessagesComponent&#45;&gt;AppModule</title>
<path fill="none" stroke="black" d="M558.98,-84.91C558.98,-84.91 558.98,-103.79 558.98,-103.79"/>
<polygon fill="black" stroke="black" points="555.48,-103.79 558.98,-113.79 562.48,-103.79 555.48,-103.79"/>
</g>
<!-- NouveauMessageComponent -->
<g id="node4" class="node">
<title>NouveauMessageComponent</title>
<polygon fill="#ffffb3" stroke="black" points="530.35,-84.8 349.65,-84.8 349.65,-48.8 530.35,-48.8 530.35,-84.8"/>
<text text-anchor="middle" x="440" y="-62.6" font-family="Times,serif" font-size="14.00">NouveauMessageComponent</text>
</g>
<!-- NouveauMessageComponent&#45;&gt;AppModule -->
<g id="edge4" class="edge">
<title>NouveauMessageComponent&#45;&gt;AppModule</title>
<path fill="none" stroke="black" d="M508.3,-84.91C508.3,-84.91 508.3,-103.79 508.3,-103.79"/>
<polygon fill="black" stroke="black" points="504.8,-103.79 508.3,-113.79 511.8,-103.79 504.8,-103.79"/>
</g>
<!-- PersonnesActivesComponent -->
<g id="node5" class="node">
<title>PersonnesActivesComponent</title>
<polygon fill="#ffffb3" stroke="black" points="331.36,-84.8 150.64,-84.8 150.64,-48.8 331.36,-48.8 331.36,-84.8"/>
<text text-anchor="middle" x="241" y="-62.6" font-family="Times,serif" font-size="14.00">PersonnesActivesComponent</text>
</g>
<!-- PersonnesActivesComponent&#45;&gt;AppModule -->
<g id="edge5" class="edge">
<title>PersonnesActivesComponent&#45;&gt;AppModule</title>
<path fill="none" stroke="black" d="M241,-84.82C241,-102.17 241,-125.8 241,-125.8 241,-125.8 476.27,-125.8 476.27,-125.8"/>
<polygon fill="black" stroke="black" points="476.27,-129.3 486.27,-125.8 476.27,-122.3 476.27,-129.3"/>
</g>
<!-- TitreComponent -->
<g id="node6" class="node">
<title>TitreComponent</title>
<polygon fill="#ffffb3" stroke="black" points="132.04,-84.8 23.96,-84.8 23.96,-48.8 132.04,-48.8 132.04,-84.8"/>
<text text-anchor="middle" x="78" y="-62.6" font-family="Times,serif" font-size="14.00">TitreComponent</text>
</g>
<!-- TitreComponent&#45;&gt;AppModule -->
<g id="edge6" class="edge">
<title>TitreComponent&#45;&gt;AppModule</title>
<path fill="none" stroke="black" d="M78,-85.08C78,-106.12 78,-137.8 78,-137.8 78,-137.8 476.07,-137.8 476.07,-137.8"/>
<polygon fill="black" stroke="black" points="476.07,-141.3 486.07,-137.8 476.07,-134.3 476.07,-141.3"/>
</g>
<!-- AppComponent  -->
<g id="node8" class="node">
<title>AppComponent </title>
<polygon fill="#80b1d3" stroke="black" points="582.44,-214.8 473.56,-214.8 473.56,-178.8 582.44,-178.8 582.44,-214.8"/>
<text text-anchor="middle" x="528" y="-192.6" font-family="Times,serif" font-size="14.00">AppComponent </text>
</g>
<!-- AppModule&#45;&gt;AppComponent  -->
<g id="edge7" class="edge">
<title>AppModule&#45;&gt;AppComponent </title>
<path fill="none" stroke="black" stroke-dasharray="1,5" d="M528,-149.91C528,-149.91 528,-168.79 528,-168.79"/>
<polygon fill="black" stroke="black" points="524.5,-168.79 528,-178.79 531.5,-168.79 524.5,-168.79"/>
</g>
</g>
</svg>
